<?xml version="1.0" encoding="utf-8"?>
<!-- Generator: Adobe Illustrator 27.9.0, SVG Export Plug-In . SVG Version: 6.00 Build 0)  -->
<svg version="1.1" id="Layer_1" xmlns="http://www.w3.org/2000/svg" xmlns:xlink="http://www.w3.org/1999/xlink" x="0px" y="0px"
	 viewBox="0 0 859 97.7" style="enable-background:new 0 0 859 97.7;" xml:space="preserve">
<style type="text/css">
	.st0{opacity:0.5;stroke:#000000;stroke-miterlimit:10;}
	.st1{fill:none;}
	.st2{fill:#FFFFFF;}
	.st3{font-family:'Poppins-Regular';}
	.st4{font-size:36px;}
	.st5{fill:#FFD493;}
	.st6{display:none;fill:#FFFFFF;}
</style>
<path class="st0" d="M810.2,97.7H48.8C22,97.7,0,75.7,0,48.8v0C0,22,22,0,48.8,0l761.4,0C837.1,0,859,22,859,48.8v0
	C859,75.7,837.1,97.7,810.2,97.7z"/>
<rect x="103.4" y="34.5" class="st1" width="731" height="27"/>
<text transform="matrix(1 0 0 1 103.3794 61.1167)" class="st2 st3 st4">User interaction (execution &amp; validation)</text>
<circle class="st5" cx="52.1" cy="48.3" r="30.3"/>
<path class="st6" d="M82.2,48.4c0-16.2-12.7-29.4-28.7-30.2c-0.1,0-0.2,0-0.2,0c-0.1,0-0.1,0-0.2,0c-0.4,0-0.7,0-1.1,0
	c-3.7,0-7.3,0.7-10.7,2c-0.1,0-0.1,0-0.2,0.1c-11.3,4.4-19.3,15.4-19.3,28.2c0,14.4,10.1,26.4,23.5,29.5c0,0,0.1,0,0.1,0
	c6.4,1.4,13.2,0.7,19.2-2c0.1,0,0.2-0.1,0.2-0.1C75.1,70.9,82.2,60.5,82.2,48.4z M74.8,31.1l-3.5,3.5h-5.5v-3.2
	c0-0.2-0.1-0.4-0.2-0.6l-2-2c-0.2-0.2-0.4-0.2-0.6-0.2h-4.4l-4.4-4.4v-4.4C62.3,20.5,69.8,24.6,74.8,31.1L74.8,31.1z M40.7,22.2v3.8
	l-3.1,3.1c-0.3,0.3-0.3,0.8,0,1.2c0,0,0,0,0,0l4.3,4.3v9.5l-3.5,3.5c-0.2,0.2-0.2,0.4-0.2,0.6v9.7h-2.2l-3.6-3.6v-6.8
	c0-0.5-0.4-0.8-0.8-0.8l0,0h-3.1c-0.2,0-0.4,0.1-0.6,0.2L23.6,51c-0.1-0.9-0.1-1.7-0.1-2.6C23.4,36.7,30.5,26.6,40.7,22.2z
	 M23.8,53.1l4.9-4.9h2v6.3c0,0.2,0.1,0.4,0.2,0.6l4.1,4.1c0.2,0.2,0.4,0.2,0.6,0.2H39c0.5,0,0.8-0.4,0.8-0.8V48.4l3.5-3.5
	c0.2-0.2,0.2-0.4,0.2-0.6V34.2c0-0.2-0.1-0.4-0.2-0.6l-4-4l2.8-2.8c0.2-0.2,0.2-0.4,0.2-0.6v-4.7c3.1-1.1,6.4-1.7,9.7-1.7
	c0.1,0,0.3,0,0.4,0v4.8c0,0.2,0.1,0.4,0.2,0.6l4.9,4.9c0.2,0.2,0.4,0.2,0.6,0.2h4.4l1.5,1.5v3.7c0,0.5,0.4,0.8,0.8,0.8l0,0h6.6
	c0.2,0,0.4-0.1,0.6-0.2l3.6-3.6c3.2,4.7,4.9,10.2,4.8,15.9c0,11-6.3,20.6-15.4,25.3v-5.2c0-0.2-0.1-0.4-0.2-0.6l-3.8-3.8v-2.8
	c0-0.5-0.4-0.8-0.8-0.8l0,0h-5.8L51.1,57c-0.3-0.3-0.8-0.3-1.2,0l-1.6,1.6h-4c-0.2,0-0.4,0.1-0.6,0.2l-1.8,1.8
	c-0.3,0.3-0.3,0.8,0,1.2c0,0,0,0,0,0l4.3,4.3v6.8L45,76.1C34.1,73.3,25.7,64.3,23.8,53.1z M46.6,76.5l1.1-3.1c0-0.1,0.1-0.2,0.1-0.3
	v-7.3c0-0.2-0.1-0.4-0.2-0.6l-4-4l1-1h4c0.2,0,0.4-0.1,0.6-0.2l1.3-1.3l3.1,3.1c0.2,0.2,0.4,0.2,0.6,0.2h5.3v2.4
	c0,0.2,0.1,0.4,0.2,0.6l3.8,3.8v5.6C58.2,76.9,52.3,77.5,46.6,76.5L46.6,76.5z"/>
<path class="st6" d="M52.4,46l5.7,3c0.1,0.1,0.2,0.1,0.4,0.1c0.1,0,0.2,0,0.3,0c0.2-0.1,0.4-0.2,0.5-0.4l3-6.2
	c0.2-0.4,0-0.9-0.3-1.1l-6-3.4c-0.2-0.1-0.5-0.1-0.8,0l-2.7,1.4c-0.3,0.1-0.4,0.4-0.4,0.7v5.2C52,45.6,52.2,45.9,52.4,46z
	 M53.6,40.6l1.8-1l4.9,2.8l-2.3,4.8l-4.5-2.3V40.6z"/>
<path class="st6" d="M87.2,60.1c-1.2-7.5-6.6-13.7-14-15.9c5.4-3,7.2-9.8,4.2-15.2c-3-5.4-9.8-7.2-15.2-4.2
	c-2.4,1.3-4.2,3.5-5.1,6.1c-1.6-0.8-3.3-1.2-5.1-1.2c-1.7,0-3.4,0.4-5,1.2c-2-5.8-8.3-8.9-14.1-6.9c-5.8,2-8.9,8.3-6.9,14.1
	c0.9,2.6,2.7,4.8,5.1,6.1c-7.3,2.1-12.7,8.3-13.9,15.9c-0.2,1,0.1,2.1,0.8,2.9c0.7,0.8,1.6,1.2,2.6,1.2h12.6
	c-0.2,0.8-0.4,1.5-0.5,2.3c-0.2,1,0.1,2.1,0.8,2.8c0.7,0.8,1.6,1.2,2.6,1.2h31.9c1,0,2-0.4,2.6-1.2c0.7-0.8,1-1.8,0.8-2.8
	c-0.1-0.8-0.3-1.5-0.5-2.3h12.6c1,0,2-0.4,2.6-1.2C87,62.1,87.3,61.1,87.2,60.1z M84.6,61.4c-0.2,0.3-0.6,0.4-0.9,0.4H70.3
	c-2.3-5.5-6.9-9.6-12.6-11.3c1.6-0.9,2.9-2.2,3.9-3.7c2-0.8,4.1-1.2,6.2-1.2c8.6,0,15.8,6.3,17.1,14.8C85,60.8,84.9,61.2,84.6,61.4
	L84.6,61.4z M67.7,25.6c4.9,0,8.9,4,8.9,8.9s-4,8.9-8.9,8.9c-1.6,0-3.1-0.4-4.5-1.2c0.1-0.4,0.1-0.9,0.1-1.3c0-3.4-1.5-6.5-4.1-8.6
	C60.2,28.3,63.7,25.6,67.7,25.6L67.7,25.6z M47.7,33.2c1.4-0.8,2.9-1.2,4.5-1.2c1.6,0,3.2,0.4,4.5,1.3c0.8,0.5,1.6,1.1,2.2,1.8
	c1.3,1.5,2.1,3.3,2.2,5.3c0,0.2,0,0.4,0,0.5c0,0.8-0.1,1.5-0.3,2.3c-0.2,0.7-0.4,1.3-0.8,1.9c-0.4,0.7-0.9,1.4-1.4,2
	c-0.8,0.8-1.7,1.5-2.7,1.9c-0.7,0.4-1.5,0.6-2.3,0.7c-0.4,0.1-0.9,0.1-1.3,0.1h0c-0.4,0-0.8,0-1.2-0.1c-0.7-0.1-1.5-0.3-2.2-0.6l0,0
	c-1.2-0.5-2.3-1.3-3.2-2.2c-0.5-0.6-0.9-1.2-1.3-1.8c-0.3-0.6-0.5-1.2-0.7-1.8c-0.2-0.8-0.3-1.5-0.3-2.3c0-0.2,0-0.3,0-0.5
	c0.1-2,0.9-3.9,2.2-5.4C46.1,34.3,46.8,33.7,47.7,33.2L47.7,33.2z M20.7,61.9c-0.4,0-0.7-0.2-0.9-0.4c-0.2-0.3-0.3-0.7-0.3-1
	c1.3-8.5,8.6-14.7,17.1-14.8c2.1,0,4.1,0.4,6.1,1.1c1,1.6,2.3,2.9,3.9,3.8c-5.7,1.7-10.3,5.8-12.6,11.3H20.7z M27.7,34.5
	c0-4.9,4-8.9,8.9-8.9c4,0,7.5,2.7,8.6,6.5c-2.6,2.1-4.2,5.3-4.2,8.7c0,0.4,0,0.9,0.1,1.3c-4.2,2.5-9.7,1.1-12.1-3.2
	C28.2,37.7,27.7,36.1,27.7,34.5z M69,67.8c-0.2,0.3-0.6,0.4-0.9,0.4H36.3c-0.4,0-0.7-0.1-0.9-0.4c-0.2-0.3-0.4-0.7-0.3-1
	c0.1-0.9,0.3-1.8,0.6-2.6c0.1-0.4,0.2-0.8,0.4-1.1c0.2-0.4,0.3-0.8,0.5-1.1c2.6-5.3,7.7-9,13.6-9.7c0.5,0,0.9-0.1,1.4-0.1h0.1
	c0.2,0,0.4,0,0.6,0h0c0.2,0,0.5,0,0.7,0h0.1c0.1,0,0.2,0,0.3,0c0.3,0,0.7,0.1,1,0.1c5.9,0.7,11,4.4,13.5,9.7
	c0.2,0.4,0.4,0.8,0.5,1.1c0.1,0.4,0.3,0.8,0.4,1.1c0.3,0.9,0.5,1.7,0.6,2.6C69.4,67.1,69.3,67.5,69,67.8L69,67.8z"/>
<path class="st6" d="M78.1,68.6C76.4,58,68.5,49.5,58.1,47c7.4-3.3,10.7-12,7.4-19.4c-3.3-7.4-12-10.7-19.4-7.4s-10.7,12-7.4,19.4
	c1.5,3.3,4.1,6,7.5,7.4c-10.4,2.5-18.3,11-19.9,21.6c-0.2,1.2,0.2,2.5,1,3.4c0.8,0.9,2,1.5,3.2,1.5h43.5c1.2,0,2.4-0.5,3.2-1.5
	C77.9,71.1,78.3,69.9,78.1,68.6z M39.4,33.6c0-7,5.7-12.7,12.7-12.7s12.7,5.7,12.7,12.7s-5.7,12.7-12.7,12.7c0,0,0,0,0,0
	C45.1,46.3,39.4,40.6,39.4,33.6z M75.6,70.8c-0.4,0.5-1,0.8-1.7,0.8H30.4c-0.6,0-1.3-0.3-1.7-0.8c-0.4-0.5-0.6-1.2-0.5-1.8
	c2-13.2,14.3-22.3,27.6-20.3c10.5,1.6,18.8,9.8,20.3,20.3C76.2,69.6,76,70.3,75.6,70.8z"/>
</svg>
